<svg xmlns="http://www.w3.org/2000/svg" shape-rendering="geometricPrecision" text-rendering="geometricPrecision" image-rendering="optimizeQuality" fill-rule="evenodd" clip-rule="evenodd" viewBox="0 0 512 493.03"><path fill="#0983E0" fill-rule="nonzero" d="M125.195 0h261.61C455.583 0 512 56.416 512 125.195v242.64c0 68.891-56.304 125.195-125.195 125.195h-261.61C56.416 493.03 0 436.614 0 367.835v-242.64C0 56.326 56.349 0 125.195 0z"/><path fill="#88DFF3" d="M125.195 18.969h261.61c58.432 0 106.225 47.816 106.225 106.226v242.64c0 58.409-47.816 106.225-106.225 106.225h-261.61c-58.41 0-106.226-47.793-106.226-106.225v-242.64c0-58.432 47.794-106.226 106.226-106.226z"/><path fill="#A3EDFD" d="M141.365 28.465h223.536c58.432 0 111.937 48.466 111.937 106.226v223.671c0 57.759-54.177 106.225-111.937 106.225H141.365c-57.76 0-106.225-47.794-106.225-106.225V134.691c0-58.432 47.793-106.226 106.225-106.226z"/><path fill="#E8FBFD" d="M309.448 28.465h55.453c58.432 0 111.937 48.376 111.937 106.226v36.729c-17.514-.313-9.765-39.215-22.419-66.695-24.927-54.154-81.589-61.388-144.971-76.26z"/><path fill="#fff" fill-rule="nonzero" d="M305.746 376.999c-5.418 0-10.28-.436-14.561-1.258-4.91-.967-9.313-2.612-13.086-4.886-3.362-1.983-6.313-4.281-8.732-6.797a36.942 36.942 0 01-6.507-9.192c-10.885-21.769-21.237-44.386-31.614-66.47l1.33 68.381c0 5.999-2.08 10.958-6.168 14.804l-1.524 1.258c-3.58 2.733-7.909 4.16-12.868 4.16h-17.827c-7.499 0-14.223-.823-19.956-2.443l-1.016-.339c-6.289-1.91-11.586-4.862-15.747-8.853-8.224-7.861-12.36-18.77-12.36-32.582 3.072-65.648 10.933-130.932 13.642-196.507-.024-5.927 2.008-10.813 5.927-14.635l2.032-1.669c3.459-2.563 7.643-3.918 12.553-3.918h25.955c4.136 0 8.103.266 11.828.774 3.87.532 7.474 1.403 10.715 2.539l.484.17c3 1.088 5.878 2.467 8.539 4.039 2.854 1.694 5.491 3.701 7.74 5.878a48.35 48.35 0 0110.159 14.005c9.192 20.682 17.223 42.379 25.882 63.399l-.508-72.493c-.048-12.216 6.918-18.311 20.826-18.311h17.827c8.757 0 16.038.967 21.819 2.878l1.693.677c2.66.992 5.055 2.153 7.135 3.411l.944.629a35.426 35.426 0 016.724 5.829c2.177 2.347 3.991 5.128 5.419 8.152l.266.629a38.255 38.255 0 012.685 8.296l1.088 7.959c2.419 59.818-7.184 141.817-12.965 202.143-.097 11.611-9.797 20.343-21.189 20.343h-26.584z"/><path fill="#0983E0" fill-rule="nonzero" d="M305.746 361.639c-8.877 0-15.456-1.306-19.786-3.894-4.33-2.588-7.474-5.83-9.409-9.724a4140.972 4140.972 0 01-31.615-66.47 16594.391 16594.391 0 00-29.993-64.221c.217 23.366.532 46.587.967 69.736.436 23.124.871 46.369 1.306 69.711 0 3.242-1.741 4.862-5.2 4.862h-17.827c-12.312 0-21.02-2.443-26.1-7.305-5.079-4.861-7.619-12.046-7.619-21.552 0-2.588.145-6.966.484-13.134.314-6.168.798-13.449 1.451-21.891.653-8.442 1.355-17.681 2.104-27.72.774-10.062 1.573-20.27 2.444-30.647 1.282-16.424 2.37-30.042 3.241-40.854.87-10.812 1.572-19.956 2.104-27.406.532-7.45.919-13.836 1.137-19.133.217-5.297.435-10.546.653-15.722 0-3.242 1.717-4.862 5.176-4.862h25.955c7.135 0 12.965.798 17.512 2.418 4.523 1.621 8.273 3.846 11.175 6.652 2.927 2.806 5.249 5.999 6.967 9.579a138.81 138.81 0 014.861 11.175c5.201 13.4 9.797 24.963 13.788 34.711 4.016 9.723 7.523 18.262 10.546 25.615 3.024 7.329 5.685 13.715 7.934 19.133 2.274 5.394 4.378 10.377 6.338 14.901a501.87 501.87 0 005.829 13.134c1.959 4.209 3.991 8.805 6.168 13.787 0-12.747-.048-25.881-.169-39.403-.097-13.497-.218-26.704-.315-39.548-.121-12.868-.218-25.253-.338-37.13-.097-11.9-.146-22.592-.146-32.122 0-1.935 1.839-2.902 5.515-2.902h17.827c7.136 0 12.796.701 17.029 2.104 4.209 1.403 7.499 3.459 9.893 6.168 2.371 2.685 3.943 5.999 4.693 9.869.75 3.894 1.137 8.345 1.137 13.304 0 5.418-.339 13.666-.968 24.817a8915.784 8915.784 0 01-2.273 37.444 4098.047 4098.047 0 01-2.927 42.959 11293.007 11293.007 0 01-3.072 41.024 3808.246 3808.246 0 01-2.588 31.953c-.774 8.756-1.258 13.884-1.476 15.408 0 1.717-.58 3.023-1.79 3.87-1.185.871-2.54 1.306-4.039 1.306h-26.584z"/></svg>